<svg width="105" height="24" viewBox="0 0 105 24" fill="none" xmlns="http://www.w3.org/2000/svg">
<g clip-path="url(#clip0_229_6947)">
<path d="M18.016 22.6158C17.97 22.6388 17.9432 22.6158 17.9432 22.5468C17.9432 22.4778 17.9432 22.4855 17.9815 22.474C18.0841 22.4339 18.1772 22.373 18.2551 22.2951C18.3329 22.2173 18.3938 22.1241 18.4339 22.0216C18.5174 21.7585 18.5294 21.478 18.4684 21.2088C18.4109 20.8752 18.3534 20.5992 18.2959 20.3768C18.2384 20.1544 18.1387 19.8669 17.9968 19.5026C17.855 19.1384 17.7821 18.9506 17.7706 18.9275C16.7099 16.068 15.1001 13.4436 13.0318 11.2021C13.8242 12.1708 14.8466 13.8488 16.099 16.2361C17.3515 18.6234 18.0224 20.295 18.1119 21.2509C18.1434 21.4886 18.1238 21.7302 18.0543 21.9596C17.9849 22.1891 17.8673 22.401 17.7093 22.5813C17.5517 22.769 17.3535 22.9183 17.1296 23.0179C16.9057 23.1176 16.6621 23.1649 16.4172 23.1564C16.0769 23.1609 15.7425 23.0663 15.4549 22.8842C15.1718 22.7124 14.9462 22.4601 14.807 22.1596C14.6398 21.8488 14.5553 21.5003 14.5616 21.1474C13.1826 18.488 11.4364 16.0358 9.37422 13.8629C8.54523 12.879 7.62053 11.98 6.61374 11.1791C6.43738 11.2519 6.23035 11.3209 6.03481 11.3899C5.9428 11.436 5.84695 11.482 5.74726 11.5203L5.42521 11.6545C5.30636 11.7005 5.22584 11.735 5.17984 11.758C5.31786 13.3759 5.53256 15.3683 5.82394 17.7352C5.87379 18.0381 5.95047 18.4751 6.06165 19.0426C6.17284 19.61 6.23801 19.9666 6.26102 20.0931L6.56774 21.0899C6.70497 21.514 6.81888 21.9454 6.90896 22.382C6.96416 22.5304 6.97204 22.6923 6.93154 22.8454C6.89103 22.9984 6.80413 23.1352 6.68276 23.2369C6.29633 23.5984 5.8163 23.8442 5.29717 23.9466C4.77804 24.0489 4.24061 24.0036 3.74593 23.8159C3.33153 23.8592 2.91429 23.7663 2.55739 23.5513C2.18441 23.3429 1.88962 23.0185 1.71775 22.6273C1.60633 22.3715 1.51904 22.1058 1.45704 21.8337C1.39862 21.6003 1.35508 21.3634 1.32668 21.1244C1.30624 20.9481 1.27939 20.6567 1.24617 20.2503C1.21294 19.8439 1.18994 19.5883 1.17716 19.4835C0.78098 15.992 0.525381 13.5638 0.410362 12.1989C0.262114 10.1746 0.134315 7.72849 0.0269632 4.86067C0.0269632 4.6498 0.0269632 4.33158 0.0269632 3.89834C0.0269632 3.4651 0.00779214 3.13154 0.00779214 2.93984C-0.0497176 1.94684 0.210994 1.38324 0.79376 1.24139L0.985459 0.857989C1.14931 0.552334 1.40662 0.30709 1.71979 0.158095C2.03295 0.00909953 2.38556 -0.0358366 2.72608 0.0298499C3.05339 0.0973765 3.36454 0.227566 3.64241 0.413248C3.9258 0.58777 4.13471 0.860858 4.22901 1.18004C4.32701 1.52481 4.31766 1.89125 4.20217 2.23056C4.15053 2.41935 4.1121 2.61152 4.08715 2.80566C4.06031 3.02803 4.04114 3.21589 4.03731 3.36541C4.03347 3.51494 4.03731 3.74881 4.01047 4.02103C3.98363 4.29324 3.9913 4.50794 3.9913 4.62296L3.88778 7.83967C3.96463 7.74987 4.06015 7.6779 4.16767 7.6288C4.30569 6.1131 4.49739 4.59868 4.74276 3.08553H4.77727V3.33091C4.82583 5.0562 4.87312 6.37254 4.91912 7.27991C8.09108 5.90369 11.1836 4.35105 14.182 2.62929L14.5654 2.41075L14.9488 2.17688C15.0869 2.09674 15.2304 2.02628 15.3782 1.96601C15.5151 1.89836 15.6633 1.85676 15.8153 1.84332C15.9615 1.84648 16.1075 1.858 16.2524 1.87783C16.3836 1.90739 16.5076 1.963 16.6169 2.04138C16.7262 2.11975 16.8187 2.21929 16.8888 2.33407C17.0373 2.57458 17.1131 2.85281 17.1074 3.13538L17.2147 3.03186C17.2862 2.96276 17.3817 2.92413 17.4812 2.92413C17.5806 2.92413 17.6761 2.96276 17.7476 3.03186C17.7912 3.05942 17.8287 3.09546 17.858 3.13785C17.8872 3.18023 17.9077 3.22808 17.9181 3.27854C17.9284 3.329 17.9285 3.38102 17.9184 3.43152C17.9082 3.48202 17.8879 3.52995 17.8588 3.57245C17.5541 4.13541 17.1877 4.66265 16.7661 5.14438C16.3143 5.6592 15.8078 6.12329 15.2555 6.52845C14.6728 6.95786 14.1539 7.31825 13.6989 7.60964C13.244 7.90102 12.6625 8.24479 11.9545 8.64097L11.0267 9.14706L11.5327 9.58414C11.5228 9.51855 11.5347 9.45152 11.5666 9.39334C11.5984 9.33516 11.6485 9.28904 11.7091 9.26208C11.7358 9.23824 11.7671 9.22 11.801 9.20842C11.8349 9.19684 11.8707 9.19216 11.9065 9.19466C11.9422 9.19717 11.9771 9.20679 12.009 9.22298C12.041 9.23917 12.0694 9.26159 12.0925 9.28892C14.2708 11.3115 16.0069 13.763 17.1917 16.4891C17.7955 17.7974 18.2756 19.1593 18.6256 20.557C18.8557 21.743 18.6525 22.4293 18.016 22.6158Z" fill="white"/>
<path d="M18.8066 3.35774C18.7145 3.02035 18.8526 2.59095 19.2283 2.04652C19.4659 1.69115 19.7676 1.38304 20.1178 1.13787C20.1837 1.06884 20.26 1.01062 20.344 0.96534C21.4533 0.183208 22.5025 -0.0800613 23.4917 0.175538C23.9499 0.263954 24.378 0.467721 24.7356 0.767589C25.0931 1.06746 25.3683 1.45353 25.5352 1.88933C25.5933 2.07363 25.5849 2.27251 25.5113 2.45121C25.4377 2.62991 25.3037 2.77707 25.1326 2.86699C24.5743 3.28786 23.9304 3.58103 23.2463 3.72581C22.8527 4.17822 22.2137 4.40442 21.3293 4.40442C20.7687 4.40979 20.212 4.30964 19.6884 4.1092C19.4853 4.04403 19.2957 3.94272 19.1286 3.81015C18.9685 3.70489 18.8536 3.54349 18.8066 3.35774ZM21.2028 4.21272C21.4605 4.21691 21.7178 4.19117 21.9696 4.13604C22.1196 4.1048 22.2643 4.05185 22.399 3.97885C22.4757 3.92518 22.4949 3.89833 22.4603 3.89833C21.8925 4.02916 21.3038 4.04091 20.7312 3.93284C20.5166 3.90376 20.3114 3.8266 20.1308 3.7071C19.9503 3.5876 19.799 3.42886 19.6884 3.24273C19.5954 3.06599 19.5449 2.87001 19.5409 2.67034C19.5369 2.47068 19.5795 2.27284 19.6654 2.09253C19.4868 2.29762 19.3288 2.51978 19.1938 2.75581C19.1076 2.88495 19.0706 3.04075 19.0896 3.19485C19.1086 3.34896 19.1823 3.49112 19.2973 3.59545C19.494 3.77161 19.727 3.90249 19.9798 3.97885C20.3755 4.10992 20.7866 4.18855 21.2028 4.21272ZM24.9179 22.1098C24.7449 22.3994 24.4723 22.6161 24.1511 22.7194C24.1833 22.8604 24.1619 23.0084 24.0911 23.1345C24.0202 23.2607 23.905 23.3559 23.7677 23.4018C23.345 23.6102 22.8666 23.6774 22.4028 23.5935C21.9312 23.516 21.4971 23.2888 21.1645 22.9456C21.1489 22.9277 21.1371 22.9068 21.13 22.8842C21.1198 22.8622 21.107 22.8416 21.0916 22.8229C20.8976 22.7439 20.7156 22.6381 20.551 22.5085C20.432 22.393 20.3265 22.2644 20.2366 22.1251C20.1446 21.9717 20.0679 21.8337 20.0104 21.711C19.94 21.5524 19.8873 21.3866 19.8532 21.2164C19.8072 21.0056 19.7727 20.8522 19.7574 20.7525C19.7421 20.6528 19.7152 20.4765 19.6884 20.2196C19.6615 19.9627 19.6385 19.7979 19.627 19.7289C19.2904 17.0869 19.1328 14.4251 19.1555 11.7618C19.1555 9.80139 19.19 8.49656 19.259 7.84734C19.3212 7.18734 19.5895 6.56363 20.0258 6.06454C20.1054 5.92333 20.2048 5.79423 20.321 5.68114C21.2526 5.05237 21.9466 4.71114 22.4028 4.6498C22.6289 4.60953 22.8619 4.65313 23.0582 4.77242C23.2544 4.89171 23.4004 5.0785 23.4687 5.29774C23.6016 5.27419 23.7385 5.30157 23.8521 5.37442C23.9109 5.41043 23.9599 5.46044 23.9947 5.51997C24.0294 5.57951 24.049 5.64674 24.0515 5.71564C24.0515 6.16039 24.0514 6.816 24.0169 7.69014C23.9824 8.56429 23.9824 9.22374 23.9824 9.66465C23.9824 10.1056 23.9824 10.4621 23.9824 10.8992C23.9824 11.3363 24.0093 11.8193 24.0284 12.3484C24.0476 12.8775 24.0591 13.2954 24.0706 13.5983C24.0706 13.7708 24.0936 14.0699 24.1396 14.4878C24.1665 14.4878 24.1895 14.5721 24.2201 14.7792C24.2508 14.9862 24.2777 15.1894 24.3083 15.3965C24.339 15.6035 24.362 15.7108 24.385 15.7108C24.2598 12.59 24.2725 9.64292 24.4233 6.86967C24.4233 6.84667 24.4464 6.8275 24.4924 6.80833C24.5317 6.79325 24.573 6.78421 24.615 6.78149C24.6373 6.77327 24.6618 6.77327 24.6841 6.78149C24.5454 11.8855 24.8198 16.9924 25.5045 22.0522C25.512 22.0998 25.5041 22.1484 25.4821 22.1912C25.46 22.2339 25.4249 22.2685 25.3818 22.29C25.3359 22.3126 25.2854 22.3244 25.2342 22.3244C25.183 22.3244 25.1325 22.3126 25.0866 22.29C25.047 22.2741 25.0114 22.2497 24.9823 22.2186C24.9531 22.1875 24.9311 22.1503 24.9179 22.1098ZM20.9498 7.51762C20.843 7.83169 20.7546 8.15173 20.6852 8.47611C20.6133 8.84628 20.5608 9.21997 20.528 9.59563C20.4935 10.0059 20.4705 10.3318 20.4513 10.5733C20.4322 10.8148 20.4207 11.1906 20.4092 11.6928C20.3977 12.1951 20.3823 12.521 20.3708 12.6705V13.0922C20.4194 13.698 20.5127 14.5594 20.6507 15.6763H20.7581V10.8378C20.7148 9.59101 20.874 8.34539 21.2296 7.14955H21.1951C21.1329 7.2018 21.0798 7.26399 21.0379 7.33359C20.9961 7.38723 20.9684 7.4505 20.9574 7.51762H20.9498Z" fill="white"/>
<path d="M44.6657 22.6158C44.6197 22.6388 44.5967 22.6158 44.5967 22.5468C44.5947 22.5326 44.5969 22.5182 44.603 22.5052C44.6091 22.4922 44.619 22.4814 44.6312 22.474C44.7344 22.4341 44.8282 22.3734 44.9067 22.2955C44.9852 22.2176 45.0468 22.1244 45.0875 22.0216C45.171 21.7585 45.1829 21.478 45.122 21.2088C45.0606 20.8752 45.0031 20.5992 44.9456 20.3768C44.8881 20.1544 44.7884 19.8669 44.6504 19.5026C44.5124 19.1384 44.4319 18.9506 44.4204 18.9275C43.368 16.0691 41.7659 13.4446 39.7046 11.2021C40.4944 12.1708 41.5168 13.8488 42.7718 16.2361C44.0268 18.6234 44.6964 20.295 44.7808 21.2509C44.8123 21.4886 44.7927 21.7302 44.7232 21.9596C44.6538 22.1891 44.5362 22.401 44.3782 22.5813C44.2208 22.7692 44.0226 22.9187 43.7987 23.0183C43.5748 23.118 43.3311 23.1652 43.0862 23.1564C42.7459 23.1602 42.4117 23.0657 42.1238 22.8842C41.8407 22.7134 41.6161 22.4608 41.4797 22.1596C41.3109 21.8494 41.2263 21.5005 41.2343 21.1474C39.8539 18.4879 38.1064 16.0358 36.0431 13.8629C35.2141 12.879 34.2894 11.98 33.2827 11.1791C33.1063 11.2519 32.8993 11.3209 32.7076 11.3899C32.6117 11.4359 32.5159 11.482 32.4162 11.5203L32.0941 11.6545L31.8487 11.758C31.9919 13.3759 32.2079 15.3683 32.4967 17.7352C32.5427 18.0381 32.6232 18.4751 32.7306 19.0426C32.8379 19.61 32.9108 19.9666 32.9338 20.0931L33.2405 21.0899C33.3759 21.5146 33.4898 21.9458 33.5817 22.382C33.6365 22.5308 33.6438 22.6929 33.6026 22.846C33.5614 22.9991 33.4737 23.1357 33.3517 23.2369C32.9658 23.5981 32.4865 23.8437 31.968 23.9461C31.4495 24.0484 30.9128 24.0033 30.4187 23.8159C30.0042 23.8609 29.5864 23.7679 29.2301 23.5513C28.855 23.3457 28.5594 23.0204 28.3905 22.6273C28.2777 22.3716 28.1892 22.1059 28.1259 21.8337C28.0694 21.5999 28.0259 21.3631 27.9956 21.1244C27.9956 20.9481 27.9534 20.6567 27.9189 20.2503C27.8844 19.8439 27.8614 19.587 27.8499 19.4835C27.4512 15.992 27.1956 13.5638 27.0831 12.1989C26.9297 10.1746 26.7956 7.72849 26.6805 4.86067C26.6805 4.6498 26.6805 4.33157 26.6805 3.89833C26.6805 3.4651 26.6805 3.13154 26.6805 2.93984C26.6192 1.94684 26.8837 1.38324 27.4665 1.24138L27.6582 0.857986C27.8243 0.538385 28.095 0.285353 28.425 0.141033C28.7292 0.00497045 29.0679 -0.0338602 29.395 0.0298476C29.7237 0.0966216 30.0363 0.226851 30.3152 0.413246C30.5976 0.587926 30.8052 0.861137 30.8979 1.18004C30.9979 1.52455 30.9885 1.8916 30.8711 2.23055C30.819 2.41905 30.7819 2.61134 30.7599 2.80565C30.7292 3.02802 30.7139 3.21589 30.7062 3.36541C30.6986 3.51494 30.7062 3.74881 30.6794 4.02103C30.6525 4.29324 30.6794 4.50794 30.6794 4.62296L30.572 7.83967C30.6497 7.75073 30.745 7.67892 30.8519 7.6288C30.995 6.1131 31.188 4.59868 31.4308 3.08553H31.4347V3.33091C31.4807 5.0562 31.5267 6.37254 31.5727 7.27991C34.746 5.90381 37.8397 4.35118 40.8394 2.62929L41.2228 2.41075L41.6254 2.17688C41.7625 2.09741 41.9047 2.02697 42.051 1.96601C42.1878 1.89836 42.336 1.85676 42.488 1.84332C42.6343 1.84623 42.7802 1.85776 42.9251 1.87783C43.0569 1.90733 43.1814 1.96289 43.2914 2.04124C43.4013 2.1196 43.4945 2.21916 43.5654 2.33407C43.7138 2.57458 43.7897 2.85281 43.7839 3.13538L43.8875 3.03186C43.9589 2.96275 44.0545 2.92413 44.1539 2.92413C44.2533 2.92413 44.3489 2.96275 44.4204 3.03186C44.4642 3.05911 44.5021 3.09492 44.5317 3.13716C44.5614 3.1794 44.5822 3.22719 44.5929 3.27767C44.6037 3.32815 44.6041 3.38028 44.5942 3.43093C44.5844 3.48158 44.5643 3.52972 44.5354 3.57245C44.2307 4.13541 43.8642 4.66264 43.4427 5.14438C42.9909 5.6592 42.4844 6.12329 41.9321 6.52845C41.3494 6.95785 40.8279 7.31825 40.3755 7.60963C39.9231 7.90102 39.3365 8.24607 38.6272 8.64097L38.1633 8.89401L37.7032 9.14706L38.2093 9.58413C38.1997 9.51905 38.2113 9.45261 38.2424 9.39462C38.2735 9.33663 38.3224 9.29016 38.3819 9.26208C38.4083 9.23774 38.4395 9.21905 38.4735 9.20717C38.5074 9.19529 38.5434 9.19045 38.5793 9.19297C38.6152 9.19548 38.6502 9.20528 38.6822 9.22178C38.7141 9.23827 38.7424 9.26112 38.7652 9.28891C40.9435 11.3124 42.6807 13.7636 43.8683 16.4891C44.4721 17.7974 44.9521 19.1593 45.3022 20.557C45.5143 21.743 45.3022 22.4293 44.6657 22.6158Z" fill="white"/>
<path d="M51.3818 18C51.3818 15.6022 53.5324 14 56.8549 14C60.1775 14 62.3281 15.6022 62.3281 18C62.3281 20.3978 60.1775 22 56.8549 22C53.5324 22 51.3818 20.3978 51.3818 18ZM59.6076 18C59.6076 16.7527 58.5324 15.9247 56.8549 15.9247C55.1775 15.9247 54.113 16.7527 54.113 18C54.113 19.2473 55.1883 20.0753 56.8549 20.0753C58.5216 20.0753 59.6076 19.2366 59.6076 18Z" fill="#6B4EFF"/>
<path d="M63.3281 14.5376H66.5539L70.5646 19.4086V14.5376H73.156V22H69.9302L65.9087 17.0645V22H63.3388L63.3281 14.5376Z" fill="#6B4EFF"/>
<path d="M74.156 14.6344H76.8764V20.0107H81.4141V22H74.156V14.6344Z" fill="#6B4EFF"/>
<path d="M82.4141 14.5376H85.1238V22H82.4141V14.5376Z" fill="#6B4EFF"/>
<path d="M86.1238 14.5376H89.3496L93.3711 19.4086V14.5376H95.941V22H92.7152L88.6829 17.0108V21.9462H86.1238V14.5376Z" fill="#6B4EFF"/>
<path d="M96.941 14.6237H104.812V16.3118H99.5754V17.5591H104.393V18.9247H99.5754V20.3118H104.952V22H96.9732L96.941 14.6237Z" fill="#6B4EFF"/>
</g>
<defs>
<clipPath id="clip0_229_6947">
<rect width="105" height="24" fill="white"/>
</clipPath>
</defs>
</svg>
